<?xml version="1.0" encoding="UTF-8"?>
<svg id="Layer_1" xmlns="http://www.w3.org/2000/svg" version="1.1" viewBox="0 0 1200 628">
  <!-- Generator: Adobe Illustrator 30.2.1, SVG Export Plug-In . SVG Version: 2.1.1 Build 1)  -->
  <defs>
    <style>
      .st0 {
        fill: #333d42;
      }

      .st1 {
        fill: #fff;
      }

      .st2 {
        fill: #ff4500;
      }
    </style>
  </defs>
  <rect class="st1" width="1200" height="628"/>
  <g>
    <g>
      <path class="st2" d="M102.4,370.8c1.9,4.9,2.4,10.2,1.2,15.3l-13.9,43c-1.5,7.1,3.1,14,10.2,15.4,2,.4,4,.3,6-.2l44.6-13.1c4.8-1,9.8-.5,14.4,1.2,65.4,30.6,143.3,2.3,173.8-63.2,30.6-65.4,2.3-143.3-63.2-173.8-65.4-30.6-143.3-2.3-173.8,63.2-16.6,35.6-16.4,76.8.7,112.1"/>
      <circle class="st1" cx="220.2" cy="287.8" r="39.2"/>
      <ellipse class="st1" cx="220.2" cy="392.5" rx="65.4" ry="39.2"/>
    </g>
    <g>
      <g>
        <path class="st2" d="M426.1,310.9l9,2.3v13.4h-42v-13.4l10.7-2.3v-51.3l-11.8-2.3v-13.4h32.6l1,11.8c2.8-4.2,6.1-7.5,10.2-9.9,4-2.3,8.7-3.5,13.9-3.5,8.2,0,14.6,2.6,19.2,7.9,4.6,5.2,7,13.5,7,24.7v36l10.7,2.3v13.4h-42.6v-13.4l9.5-2.3v-35.9c0-5.5-1.1-9.5-3.3-11.8-2.2-2.3-5.4-3.5-9.8-3.5-6.3,0-11,2.6-14.3,7.8v43.4Z"/>
        <path class="st2" d="M533.2,328.2c-8.1,0-15.1-1.8-21-5.3-5.9-3.6-10.3-8.5-13.4-14.9-3.1-6.3-4.7-13.6-4.7-21.9v-1.6c0-8.3,1.6-15.6,4.7-21.8,3.1-6.4,7.6-11.3,13.4-14.9,5.8-3.6,12.8-5.3,20.9-5.3s15.3,1.8,21,5.3c5.8,3.6,10.3,8.5,13.4,14.9,3.1,6.3,4.7,13.6,4.7,21.9v1.6c0,8.3-1.6,15.6-4.7,21.8-3.1,6.3-7.6,11.3-13.4,14.9s-12.8,5.4-20.9,5.4ZM533.2,311.1c3.8,0,7-1,9.5-3.1,2.4-2.1,4.3-5,5.4-8.7,1.2-3.7,1.8-8.1,1.8-13.1v-1.6c0-4.8-.6-9.2-1.8-13-1.2-3.8-3-6.7-5.5-8.8-2.5-2.1-5.7-3.1-9.6-3.1s-6.9,1-9.5,3.1c-2.5,2.1-4.3,5.1-5.5,8.8-1.1,3.7-1.7,8.1-1.7,12.9v1.6c0,4.9.6,9.3,1.8,13.1,1.2,3.8,3,6.7,5.5,8.7,2.5,2.1,5.7,3.1,9.6,3.1Z"/>
        <path class="st2" d="M614.5,328.2c-7.7,0-13.6-2.1-17.8-6.3-4.2-4.2-6.2-10.9-6.2-20.1v-42.2h-11.4v-15.7h11.4v-20.2h22.2v20.2h15.2v15.7h-15.2v42.1c0,3.2.7,5.5,2,6.9,1.3,1.4,3.2,2.1,5.5,2.1s2.5,0,4-.3c1.4-.2,2.6-.4,3.7-.6l1.9,16.1c-2.3.7-4.8,1.2-7.4,1.6-2.7.4-5.3.6-7.9.6Z"/>
        <path class="st2" d="M643.3,287.6v-17.2h43.1v17.2h-43.1Z"/>
        <path class="st2" d="M735.1,310.9l10.7,2.3v13.4h-43.7v-13.4l10.7-2.3v-51.3l-11.8-2.3v-13.4h32.6l.8,10.2.2,1.8c4.1-9.1,10.2-13.6,18.3-13.6s2.8.1,4.4.3c1.6.2,3,.5,4.2.9l-2.4,20.5-11.1-.6h-1.1c-2.6,0-4.8.5-6.6,1.6-2,1.2-3.7,3-5.3,5.3v40.5Z"/>
        <path class="st2" d="M807.6,328.2c-7.9,0-14.8-1.8-20.7-5.3-5.9-3.5-10.5-8.2-13.7-14.4-3.2-6.1-4.9-13.1-4.9-20.9v-3.1c0-8.2,1.5-15.5,4.6-21.8,3.1-6.3,7.4-11.3,13-15,5.4-3.6,11.9-5.3,19.4-5.3h.3c7.5,0,13.8,1.5,18.9,4.4,10.4,6,15.6,17,15.6,32.9v12.1h-48.6l-.2.5c.3,3.6,1.2,6.8,2.7,9.6,1.5,2.8,3.6,5,6.3,6.6,2.8,1.6,6.1,2.4,10,2.4s7.9-.5,11.4-1.6c3.5-1,7-2.6,10.3-4.6l6,13.7c-3.4,2.7-7.7,5-12.9,6.8-5.2,1.8-11.1,2.7-17.8,2.7ZM791.4,276.8l.2.4h27.6v-2c0-3.3-.4-6.2-1.3-8.7-1.9-5-5.9-7.6-11.9-7.6s-5.4.8-7.5,2.3c-2,1.6-3.6,3.7-4.8,6.4-1.1,2.7-1.9,5.8-2.3,9.2Z"/>
        <path class="st2" d="M882.2,328.2c-6.6,0-12.2-1.7-16.9-5.1-4.7-3.4-8.4-8.1-10.8-14.2-2.5-6.1-3.7-13.2-3.7-21.3v-1.6c0-8.7,1.3-16.3,3.8-22.8,2.5-6.5,6.1-11.6,10.8-15.2,4.7-3.6,10.2-5.5,16.8-5.5s8.5.9,11.9,2.7c3.4,1.8,6.4,4.4,8.9,7.7v-29.6l-11.9-2.3v-13.4h34.2v103.5l10.7,2.3v13.4h-30l-1.7-10.1c-2.6,3.8-5.7,6.7-9.3,8.7-3.6,2-7.8,3-12.7,3ZM888.8,310.8c6.1,0,10.8-2.6,14.1-7.7v-35.1c-3.2-5.5-7.8-8.3-13.9-8.3s-6.7,1.1-9.1,3.3c-2.3,2.2-4.1,5.3-5.2,9.2-1.1,3.9-1.7,8.5-1.7,13.7v1.6c0,7.2,1.2,12.9,3.7,17.1,2.4,4.2,6.5,6.2,12.1,6.2Z"/>
        <path class="st2" d="M974.8,328.2c-6.6,0-12.2-1.7-16.9-5.1-4.7-3.4-8.4-8.1-10.8-14.2-2.5-6.1-3.7-13.2-3.7-21.3v-1.6c0-8.7,1.3-16.3,3.8-22.8,2.5-6.5,6.1-11.6,10.8-15.2,4.7-3.6,10.2-5.5,16.8-5.5s8.5.9,11.9,2.7c3.4,1.8,6.4,4.4,8.9,7.7v-29.6l-11.9-2.3v-13.4h34.2v103.5l10.7,2.3v13.4h-30l-1.7-10.1c-2.6,3.8-5.7,6.7-9.3,8.7-3.6,2-7.8,3-12.7,3ZM981.4,310.8c6.1,0,10.8-2.6,14.1-7.7v-35.1c-3.2-5.5-7.8-8.3-13.9-8.3s-6.7,1.1-9.1,3.3c-2.3,2.2-4.1,5.3-5.2,9.2-1.1,3.9-1.7,8.5-1.7,13.7v1.6c0,7.2,1.2,12.9,3.7,17.1,2.4,4.2,6.5,6.2,12.1,6.2Z"/>
        <path class="st2" d="M1067.9,243.9v67l10.7,2.3v13.4h-43.8v-13.4l10.8-2.3v-51.3l-11.9-2.3v-13.4h34.2ZM1044.9,226.4v-19h23.1v19h-23.1Z"/>
        <path class="st2" d="M1118.5,328.2c-7.7,0-13.6-2.1-17.8-6.3s-6.2-10.9-6.2-20.1v-42.2h-11.4v-15.7h11.4v-20.2h22.2v20.2h15.2v15.7h-15.2v42.1c0,3.2.7,5.5,2,6.9,1.3,1.4,3.2,2.1,5.5,2.1s2.5,0,4-.3c1.4-.2,2.6-.4,3.7-.6l1.9,16.1c-2.3.7-4.8,1.2-7.4,1.6-2.7.4-5.3.6-7.9.6Z"/>
      </g>
      <g>
        <path class="st0" d="M394.1,404.2l6.2-37.2h11.9c10.8,0,16.2,7.1,14.3,18.8-1.9,11.5-9.3,18.4-20.7,18.4h-11.6ZM405.9,400.2c9.2,0,14.7-5.7,16.2-15,1.5-8.9-1.9-14.3-10.6-14.3h-7.4l-4.8,29.2h6.6Z"/>
        <path class="st0" d="M431.4,390.1c1.4-8.6,7.3-14.2,14.7-14.2s11.9,5.9,10.5,14.8c-1.4,8.5-7.3,14.1-14.7,14.1s-11.9-5.9-10.5-14.7ZM452.5,390.1c.9-5.5-.8-10.3-6.4-10.3s-9.6,5.2-10.5,10.9c-.9,5.5.8,10.3,6.4,10.3s9.5-5.1,10.5-10.8Z"/>
        <path class="st0" d="M465.2,404.2h-4.3l4.7-27.9h4.1l-.7,4.4h.4c1.7-2.8,4.7-4.7,8.9-4.7s8.9,3.4,7.7,10.5l-3,17.8h-4.3l2.9-17.5c.7-4.4-1.2-7-5.2-7s-7.6,2.8-8.4,7.6l-2.8,16.8Z"/>
        <path class="st0" d="M498.7,379.8h-4l2.1-12.8h4l-2.1,12.8Z"/>
        <path class="st0" d="M518.5,379.9h-6l-2.7,16.3c-.6,3.6,1.2,4.2,3.1,4.2s1.5-.1,1.9-.2l.3,3.9c-.7.2-1.7.5-3.3.5-3.6,0-7.1-2.3-6.3-7.2l2.9-17.5h-4.2l.6-3.6h4.2l1.1-6.7h4.3l-1.1,6.7h6l-.6,3.6Z"/>
        <path class="st0" d="M557.6,376.3h4.3l-4.7,27.9h-4.3l.8-4.7h-.3c-1.7,2.8-4.9,5.1-9.2,5.1s-8.4-3.4-7.3-10.5l3-17.8h4.3l-2.9,17.5c-.7,4.1,1.5,6.7,5,6.7s7.6-2.4,8.4-7.6l2.8-16.5Z"/>
        <path class="st0" d="M584.4,383.6c-.4-2-1.6-4-5.4-4s-6.3,1.7-6.6,4.1c-.4,2.1.9,3.3,4.1,4.1l4,1c4.8,1.2,6.8,3.6,6.2,7.6-.8,4.8-5.8,8.4-12.3,8.4s-9.2-2.5-9.5-7.3l4.3-1c.2,3,2.2,4.5,5.7,4.5s6.9-2,7.3-4.4c.4-2-.7-3.3-3.5-3.9l-4.4-1.1c-4.9-1.2-6.8-3.8-6.2-7.6.8-4.7,5.7-8.1,11.6-8.1s8.1,2.6,8.8,6.6l-4.1,1.1Z"/>
        <path class="st0" d="M592.9,390.5c1.4-8.6,7.4-14.6,15-14.6s11.4,3.6,9.7,14l-.3,1.8h-20.3c-1,6.8,1.8,9.2,7.2,9.2s6.1-1.5,7.7-4.4l3.9,1.2c-2,4.2-6.6,7.1-12.3,7.1-8.1,0-12.1-5.7-10.6-14.3ZM613.5,388c.8-4.7-1.6-8.2-6.3-8.2s-8.8,4.3-9.7,8.2h15.9Z"/>
        <path class="st0" d="M643,367h12.6c8.7,0,11.9,4.8,10.8,11.4-.8,4.9-3.7,8.8-8.7,10.4l5.9,15.4h-5.2l-5.5-14.6c-.3,0-.6,0-.9,0h-8.1l-2.4,14.6h-4.5l6.2-37.2ZM652.4,385.6c6,0,8.7-2.8,9.5-7.2.7-4.5-1.1-7.4-7.1-7.4h-7.9l-2.4,14.6h8Z"/>
        <path class="st0" d="M669.7,390.5c1.4-8.6,7.4-14.6,15-14.6s11.4,3.6,9.7,14l-.3,1.8h-20.3c-1,6.8,1.8,9.2,7.2,9.2s6.1-1.5,7.7-4.4l3.9,1.2c-2,4.2-6.6,7.1-12.3,7.1-8.1,0-12.1-5.7-10.6-14.3ZM690.3,388c.8-4.7-1.6-8.2-6.3-8.2s-8.8,4.3-9.7,8.2h15.9Z"/>
        <path class="st0" d="M699.6,390.3c1.5-8.8,7.3-14.4,14.3-14.4s6.6,3.3,7.3,4.8h.4l2.3-13.8h4.3l-6.2,37.2h-4.1l.7-4.3h-.5c-1.2,1.5-3.6,4.9-8.9,4.9s-10.9-5.6-9.5-14.5ZM720.1,390.2c1-6.3-1.2-10.5-6.4-10.5s-8.7,4.6-9.7,10.5c-1,6,.8,10.7,6.2,10.7s8.9-4.4,9.9-10.7Z"/>
        <path class="st0" d="M731.4,390.3c1.5-8.8,7.3-14.4,14.3-14.4s6.6,3.3,7.3,4.8h.4l2.3-13.8h4.3l-6.2,37.2h-4.1l.7-4.3h-.5c-1.2,1.5-3.6,4.9-8.9,4.9s-10.9-5.6-9.5-14.5ZM751.9,390.2c1-6.3-1.2-10.5-6.4-10.5s-8.7,4.6-9.7,10.5c-1,6,.8,10.7,6.2,10.7s8.9-4.4,9.9-10.7Z"/>
        <path class="st0" d="M766.9,376.3h4.3l-4.7,27.9h-4.3l4.7-27.9ZM767.3,368.6c0-1.6,1.4-2.9,3.1-2.9s3.1,1.3,3.1,2.9-1.4,2.9-3.1,2.9-3.1-1.3-3.1-2.9Z"/>
        <path class="st0" d="M790.6,379.9h-6l-2.7,16.3c-.6,3.6,1.2,4.2,3.1,4.2s1.5-.1,1.9-.2l.3,3.9c-.7.2-1.7.5-3.3.5-3.6,0-7.1-2.3-6.3-7.2l2.9-17.5h-4.2l.6-3.6h4.2l1.1-6.7h4.3l-1.1,6.7h6l-.6,3.6Z"/>
      </g>
    </g>
  </g>
</svg>